<svg>
    <symbol id="mic-on" width="32px" height="32px" viewBox="-0.5 0 25 25" fill="none" xmlns="http://www.w3.org/2000/svg">
        <path d="M7 7.40991C7 6.08383 7.52677 4.81207 8.46445 3.87439C9.40213 2.93671 10.6739 2.40991 12 2.40991C13.3261 2.40991 14.5978 2.93671 15.5355 3.87439C16.4732 4.81207 17 6.08383 17 7.40991V13.4099C17 14.736 16.4732 16.0079 15.5355 16.9456C14.5978 17.8832 13.3261 18.4099 12 18.4099C10.6739 18.4099 9.40213 17.8832 8.46445 16.9456C7.52677 16.0079 7 14.736 7 13.4099V7.40991Z" stroke="#ffffff" stroke-width="1.5" stroke-linecap="round" stroke-linejoin="round"/>
        <path d="M21 13.4099C21 15.7969 20.0518 18.0861 18.364 19.7739C16.6761 21.4618 14.3869 22.4099 12 22.4099C9.61305 22.4099 7.32384 21.4618 5.63602 19.7739C3.94819 18.0861 3 15.7969 3 13.4099" stroke="#ffffff" stroke-width="1.5" stroke-linecap="round" stroke-linejoin="round"/>
    </symbol>

    <symbol id="mic-off" width="32px" height="32px" viewBox="0 0 24 24" fill="none" xmlns="http://www.w3.org/2000/svg">
        <path d="M17.0005 11.24V13C17.0005 14.3261 16.4737 15.5978 15.536 16.5355C14.5983 17.4732 13.3266 18 12.0005 18C11.4846 17.9975 10.972 17.9166 10.4805 17.76" stroke="var(--color-danger)" stroke-width="1.5" stroke-linecap="round" stroke-linejoin="round"/>
        <path d="M8 16C7.35089 15.1345 7 14.0819 7 13V7C7 5.67392 7.52677 4.40216 8.46445 3.46448C9.40213 2.5268 10.6739 2 12 2C13.3261 2 14.5978 2.5268 15.5355 3.46448C16.4732 4.40216 17 5.67392 17 7" stroke="var(--color-danger)" stroke-width="1.5" stroke-linecap="round" stroke-linejoin="round"/>
        <path d="M5.21081 18.84C3.81268 17.216 3.04593 15.1429 3.0508 13" stroke="var(--color-danger)" stroke-width="1.5" stroke-linecap="round" stroke-linejoin="round"/>
        <path d="M21.0007 13C20.9995 14.5822 20.5812 16.1361 19.788 17.5051C18.9948 18.8741 17.8547 20.0098 16.4827 20.7977C15.1107 21.5857 13.5551 21.9979 11.973 21.993C10.3908 21.9882 8.83786 21.5664 7.4707 20.77" stroke="var(--color-danger)" stroke-width="1.5" stroke-linecap="round" stroke-linejoin="round"/>
        <path d="M22 2L2 22" stroke="var(--color-danger)" stroke-width="1.5" stroke-linecap="round" stroke-linejoin="round"/>
    </symbol>

<symbol id="camera-on" width="32px" height="32px" viewBox="0 0 24 24" fill="none" xmlns="http://www.w3.org/2000/svg">
    <path d="M19.8095 5.20996C18.6095 4.77996 15.9195 6.29996 13.9695 8.20996C13.9587 7.13345 13.5397 6.10111 12.7973 5.32153C12.0548 4.54195 11.0442 4.07328 9.96947 4.01001H5.96947C4.83454 4.0896 3.77711 4.6146 3.02779 5.4707C2.27847 6.3268 1.89805 7.44449 1.96947 8.57996V15.4299C1.89797 16.5664 2.2781 17.6853 3.02718 18.543C3.77625 19.4007 4.83368 19.9279 5.96947 20.01H9.96947C11.045 19.9443 12.0558 19.4733 12.798 18.6921C13.5402 17.9109 13.9588 16.8775 13.9695 15.7999C15.9195 17.6999 18.6095 19.2199 19.8095 18.7999C21.6795 18.1299 21.9995 14.54 21.9995 12.02C21.9995 9.50002 21.6795 5.87996 19.8095 5.20996Z" stroke="#ffffff" stroke-width="1.5" stroke-linecap="round" stroke-linejoin="round"/>
</symbol>

<symbol id="camera-off" width="32px" height="32px" viewBox="0 0 24 24" fill="none" xmlns="http://www.w3.org/2000/svg">  
    <path d="M4.39068 19.61C3.64648 19.1978 3.02993 18.5889 2.60842 17.85C2.18691 17.111 1.97668 16.2703 2.0007 15.4199V8.56995C1.92928 7.43448 2.30969 6.31691 3.05901 5.46082C3.80834 4.60472 4.86577 4.07959 6.0007 4H10.0007C11.0754 4.06327 12.086 4.53207 12.8285 5.31165C13.5709 6.09122 13.9899 7.12344 14.0007 8.19995V10.03" stroke="var(--color-danger)" stroke-width="1.5" stroke-linecap="round" stroke-linejoin="round"/>
    <path d="M8.21094 20H9.97095C11.0465 19.9343 12.0572 19.4633 12.7995 18.6821C13.5417 17.9009 13.9603 16.8674 13.9709 15.7899C15.9209 17.6899 18.6109 19.2099 19.8109 18.7899C21.6809 18.1199 22.0009 14.53 22.0009 12.01C22.0575 10.3177 21.831 8.62776 21.3309 7.01001" stroke="var(--color-danger)" stroke-width="1.5" stroke-linecap="round" stroke-linejoin="round"/>
    <path d="M22 2L2 22" stroke="var(--color-danger)" stroke-width="1.5" stroke-linecap="round" stroke-linejoin="round"/>
</symbol>

<symbol id="chat" width="32px" height="32px" viewBox="0 0 24 24" fill="none" xmlns="http://www.w3.org/2000/svg">
    <g clip-path="url(#clip0_8_53)">
    <path d="M16 12C15.87 12.0016 15.7409 11.9778 15.62 11.93C15.4971 11.8781 15.3852 11.8035 15.29 11.7101C15.2001 11.6179 15.1287 11.5092 15.08 11.39C15.0296 11.266 15.0025 11.1338 15 11C15.0011 10.7376 15.1053 10.4863 15.29 10.3C15.3825 10.2033 15.4952 10.1282 15.62 10.0801C15.8031 10.0047 16.0044 9.98535 16.1984 10.0245C16.3924 10.0637 16.5705 10.1596 16.71 10.3C16.8947 10.4863 16.9989 10.7376 17 11C16.9975 11.1338 16.9704 11.266 16.92 11.39C16.8713 11.5092 16.7999 11.6179 16.71 11.7101C16.6166 11.8027 16.5057 11.876 16.3839 11.9258C16.2621 11.9755 16.1316 12.0007 16 12Z" fill="#ffffff"/>
    <path d="M12 12C11.87 12.0016 11.7409 11.9778 11.62 11.93C11.4971 11.8781 11.3852 11.8035 11.29 11.7101C11.2001 11.6179 11.1287 11.5092 11.08 11.39C11.0296 11.266 11.0025 11.1338 11 11C11.0011 10.7376 11.1053 10.4863 11.29 10.3C11.3825 10.2033 11.4952 10.1282 11.62 10.0801C11.8031 10.0047 12.0044 9.98535 12.1984 10.0245C12.3924 10.0637 12.5705 10.1596 12.71 10.3C12.8947 10.4863 12.9989 10.7376 13 11C12.9975 11.1338 12.9704 11.266 12.92 11.39C12.8713 11.5092 12.7999 11.6179 12.71 11.7101C12.6166 11.8027 12.5057 11.876 12.3839 11.9258C12.2621 11.9755 12.1316 12.0007 12 12Z" fill="#ffffff"/>
    <path d="M8 12C7.86999 12.0016 7.74091 11.9778 7.62 11.93C7.49713 11.8781 7.38519 11.8035 7.29001 11.7101C7.20006 11.6179 7.12873 11.5092 7.07999 11.39C7.0296 11.266 7.0025 11.1338 7 11C7.0011 10.7376 7.10526 10.4863 7.29001 10.3C7.3825 10.2033 7.49516 10.1282 7.62 10.0801C7.80305 10.0047 8.00435 9.98535 8.19839 10.0245C8.39244 10.0637 8.57048 10.1596 8.70999 10.3C8.89474 10.4863 8.9989 10.7376 9 11C8.9975 11.1338 8.9704 11.266 8.92001 11.39C8.87127 11.5092 8.79994 11.6179 8.70999 11.7101C8.61655 11.8027 8.50575 11.876 8.38391 11.9258C8.26207 11.9755 8.13161 12.0007 8 12Z" fill="#ffffff"/>
    </g>
    <path d="M4.99951 16.55V19.9C4.99922 20.3102 5.11905 20.7114 5.34418 21.0542C5.56931 21.397 5.88994 21.6665 6.26642 21.8292C6.6429 21.9919 7.05875 22.0408 7.46271 21.9698C7.86666 21.8989 8.24103 21.7113 8.53955 21.4301L11.1495 18.9701H12.0195C17.5395 18.9701 22.0195 15.1701 22.0195 10.4701C22.0195 5.77009 17.5395 1.97009 12.0195 1.97009C6.49953 1.97009 2.01953 5.78009 2.01953 10.4701C2.042 11.6389 2.32261 12.7882 2.84125 13.8358C3.35989 14.8835 4.10373 15.8035 5.01953 16.53L4.99951 16.55Z" stroke="#ffffff" stroke-width="1.5" stroke-linecap="round" stroke-linejoin="round"/>
    <defs>
    <clipPath id="clip0_8_53">
    <rect width="10" height="2" fill="white" transform="translate(7 10)"/>
    </clipPath>
    </defs>
</symbol>

</svg>
